<svg width="230" height="73" viewBox="0 0 230 73" fill="none" xmlns="http://www.w3.org/2000/svg">
<g clip-path="url(#clip0_987_108554)">
<path d="M12.3132 4.02637L3.06323 11.6359V69H216.892L226 62.3865V4.02637H12.3132Z" fill="white"/>
<g style="mix-blend-mode:screen">
<path d="M210.092 2.00009C210.092 4.77533 166.645 7.0251 113.05 7.0251C59.4545 7.0251 16.0071 4.77534 16.0071 2.0001C16.0071 -0.775133 59.4545 -3.0249 113.05 -3.02491C166.645 -3.02491 210.092 -0.77514 210.092 2.00009Z" fill="url(#paint0_radial_987_108554)"/>
</g>
<g style="mix-blend-mode:color-dodge">
<path d="M217.095 69.7979C217.095 72.5732 169.393 74.823 110.548 74.823C51.7043 74.823 4.00171 72.5732 4.00171 69.798C4.00171 67.0227 51.7043 64.7729 110.548 64.7729C169.393 64.7729 217.095 67.0227 217.095 69.7979Z" fill="url(#paint1_radial_987_108554)"/>
</g>
</g>
<g filter="url(#filter0_f_987_108554)">
<path fill-rule="evenodd" clip-rule="evenodd" d="M1.23746 10.6788L11.5526 2.5631L11.2472 2.17494L11.5526 2.5631C11.6408 2.49376 11.7496 2.45605 11.8618 2.45605H213.995H226.799C227.075 2.45605 227.299 2.67991 227.299 2.95605V62.7727C227.299 62.9399 227.215 63.096 227.076 63.1888L216.232 70.4161C216.15 70.4708 216.053 70.5 215.954 70.5H1.54664C1.27049 70.5 1.04663 70.2761 1.04663 70V30.6041L0.546631 31.5434V70C0.546631 70.5523 0.994352 71 1.54664 71H215.954C216.152 71 216.345 70.9416 216.509 70.8321L227.354 63.6048C227.632 63.4194 227.799 63.1071 227.799 62.7727V2.95605C227.799 2.40377 227.351 1.95605 226.799 1.95605H213.995H11.8618C11.6375 1.95605 11.4197 2.03146 11.2434 2.17014L0.928295 10.2858C0.687309 10.4754 0.546631 10.7651 0.546631 11.0717V18.706L1.04663 17.8059V11.0717C1.04663 10.9184 1.11697 10.7736 1.23746 10.6788ZM0.546631 28.5363L1.04663 27.6362V25.6237L0.546631 26.5629V28.5363ZM1.04663 20.7738V22.6558L0.546631 23.5559V21.7131L1.04663 20.7738Z" fill="#EAE9E9"/>
</g>
<path fill-rule="evenodd" clip-rule="evenodd" d="M1.2391 10.6064L11.5519 2.56181C11.6398 2.49328 11.748 2.45605 11.8595 2.45605H214.545H227.349C227.625 2.45605 227.849 2.67991 227.849 2.95605V62.8359C227.849 63.0038 227.765 63.1605 227.625 63.253L216.782 70.4172C216.701 70.4712 216.605 70.5 216.507 70.5H1.54663C1.27049 70.5 1.04663 70.2761 1.04663 70V30.6041L0.546631 31.5434V70C0.546631 70.5523 0.99435 71 1.54663 71H216.507C216.703 71 216.894 70.9424 217.058 70.8343L227.9 63.6702C228.181 63.4851 228.349 63.1717 228.349 62.8359V2.95605C228.349 2.40377 227.901 1.95605 227.349 1.95605H214.545H11.8595C11.6366 1.95605 11.4201 2.0305 11.2444 2.16757L0.931573 10.2121C0.688647 10.4016 0.546631 10.6925 0.546631 11.0006V18.706L1.04663 17.8059V11.0006C1.04663 10.8466 1.11764 10.7011 1.2391 10.6064ZM0.546631 28.5363L1.04663 27.6362V25.6237L0.546631 26.5629V28.5363ZM1.04663 20.7738V22.6558L0.546631 23.5559V21.7131L1.04663 20.7738Z" fill="#EAE9E9"/>
<defs>
<filter id="filter0_f_987_108554" x="-0.953369" y="0.456055" width="230.252" height="72.0439" filterUnits="userSpaceOnUse" color-interpolation-filters="sRGB">
<feFlood flood-opacity="0" result="BackgroundImageFix"/>
<feBlend mode="normal" in="SourceGraphic" in2="BackgroundImageFix" result="shape"/>
<feGaussianBlur stdDeviation="0.75" result="effect1_foregroundBlur_987_108554"/>
</filter>
<radialGradient id="paint0_radial_987_108554" cx="0" cy="0" r="1" gradientUnits="userSpaceOnUse" gradientTransform="translate(113.038 2.00019) rotate(-90) scale(5.02205 97.1283)">
<stop stop-color="#E4E4E4"/>
<stop offset="1"/>
</radialGradient>
<radialGradient id="paint1_radial_987_108554" cx="0" cy="0" r="1" gradientUnits="userSpaceOnUse" gradientTransform="translate(110.536 69.798) rotate(-90) scale(5.02206 106.641)">
<stop stop-color="#E4E4E4"/>
<stop offset="1"/>
</radialGradient>
<clipPath id="clip0_987_108554">
<rect width="229" height="67" fill="white" transform="translate(0 2)"/>
</clipPath>
</defs>
</svg>
