<svg width="513" height="278" viewBox="0 0 513 278" fill="none" xmlns="http://www.w3.org/2000/svg">
<g clip-path="url(#clip0_525_329875)">
<path d="M13.3132 4.02734L4.06323 11.6369V273.5H498.392L507.5 266.887V4.02734H13.3132Z" fill="url(#paint0_linear_525_329875)" fill-opacity="0.5"/>
<g style="mix-blend-mode:screen">
<path d="M466.139 1.99961C466.139 4.77484 369.947 7.02461 251.289 7.02461C132.631 7.02462 36.4392 4.77485 36.4392 1.99961C36.4392 -0.775621 132.631 -3.02539 251.289 -3.02539C369.947 -3.0254 466.139 -0.775628 466.139 1.99961Z" fill="url(#paint1_radial_525_329875)"/>
</g>
</g>
<g filter="url(#filter0_f_525_329875)">
<path fill-rule="evenodd" clip-rule="evenodd" d="M2.23452 10.6792L12.5078 2.56466C12.5961 2.49495 12.7053 2.45703 12.8177 2.45703H497.25H510C510.276 2.45703 510.5 2.68089 510.5 2.95703V267.966C510.5 268.133 510.417 268.289 510.278 268.381L499.478 275.608C499.395 275.663 499.299 275.692 499.2 275.692H2.54443C2.26829 275.692 2.04443 275.468 2.04443 275.192V30.6025L1.54443 31.5455V275.192C1.54443 275.744 1.99215 276.192 2.54443 276.192H499.2C499.398 276.192 499.591 276.133 499.756 276.023L510.556 268.797C510.833 268.611 511 268.3 511 267.966V2.95703C511 2.40475 510.552 1.95703 510 1.95703H497.25H12.8177C12.5928 1.95703 12.3744 2.03287 12.1979 2.1723L1.9246 10.2868C1.6845 10.4765 1.54443 10.7656 1.54443 11.0716V18.7064L2.04443 17.8028V11.0716C2.04443 10.9186 2.11447 10.774 2.23452 10.6792ZM1.54443 28.5384L2.04443 27.6348V25.622L1.54443 26.565V28.5384ZM2.04443 20.7705V22.6543L1.54443 23.558V21.7135L2.04443 20.7705Z" fill="#EAE9E9"/>
</g>
<path fill-rule="evenodd" clip-rule="evenodd" d="M1.54443 11.0004C1.54443 10.693 1.68584 10.4026 1.92788 10.2131L12.1988 2.16972C12.3748 2.03191 12.5919 1.95703 12.8154 1.95703H497.25H510C510.552 1.95703 511 2.40475 511 2.95703L511 268.337C511 268.672 510.832 268.985 510.553 269.17L499.755 276.333C499.591 276.442 499.398 276.5 499.202 276.5H2.54443C1.99215 276.5 1.54443 276.052 1.54443 275.5V31.5455L2.04443 30.6025V275.5C2.04443 275.776 2.26829 276 2.54443 276H499.202C499.3 276 499.396 275.971 499.478 275.917L510.276 268.754C510.416 268.661 510.5 268.505 510.5 268.337L510.5 2.95703C510.5 2.68089 510.276 2.45703 510 2.45703H497.25H12.8154C12.7036 2.45703 12.5951 2.49447 12.5071 2.56338L2.23615 10.6068C2.11514 10.7015 2.04443 10.8467 2.04443 11.0004V17.8028L1.54443 18.7064V11.0004ZM2.04443 27.6348V25.622L1.54443 26.565V28.5384L2.04443 27.6348ZM2.04443 22.6543L1.54443 23.558V21.7135L2.04443 20.7705V22.6543Z" fill="#EAE9E9"/>
<defs>
<filter id="filter0_f_525_329875" x="0.0444336" y="0.457031" width="512.456" height="277.235" filterUnits="userSpaceOnUse" color-interpolation-filters="sRGB">
<feFlood flood-opacity="0" result="BackgroundImageFix"/>
<feBlend mode="normal" in="SourceGraphic" in2="BackgroundImageFix" result="shape"/>
<feGaussianBlur stdDeviation="0.75" result="effect1_foregroundBlur_525_329875"/>
</filter>
<linearGradient id="paint0_linear_525_329875" x1="275.488" y1="-81.7363" x2="288.088" y2="416.98" gradientUnits="userSpaceOnUse">
<stop stop-color="#797B79"/>
<stop offset="0.489583" stop-color="#A5A5A5"/>
<stop offset="1" stop-color="#7B7979"/>
</linearGradient>
<radialGradient id="paint1_radial_525_329875" cx="0" cy="0" r="1" gradientUnits="userSpaceOnUse" gradientTransform="translate(251.264 1.9997) rotate(-90) scale(5.02205 215.04)">
<stop stop-color="#E4E4E4"/>
<stop offset="1"/>
</radialGradient>
<clipPath id="clip0_525_329875">
<rect width="507" height="272" fill="white" transform="translate(1 2)"/>
</clipPath>
</defs>
</svg>
