<svg width="22" height="23" viewBox="0 0 22 23" fill="none" xmlns="http://www.w3.org/2000/svg">
<g filter="url(#filter0_bdd_2266_73515)">
<path d="M20.0702 1.5H5.96656C5.82511 1.5 5.68946 1.55619 5.58944 1.65621L1.35641 5.88924C1.25639 5.98926 1.2002 6.12492 1.2002 6.26637V20.37C1.2002 20.5114 1.25639 20.6471 1.35641 20.7471L1.95308 21.3438C2.0531 21.4438 2.18875 21.5 2.3302 21.5H16.4338C16.5753 21.5 16.7109 21.4438 16.811 21.3438L21.044 17.1108C21.144 17.0107 21.2002 16.8751 21.2002 16.7336V2.63C21.2002 2.48856 21.144 2.3529 21.044 2.25288L20.4473 1.65621C20.3473 1.55619 20.2116 1.5 20.0702 1.5Z" fill="url(#paint0_linear_2266_73515)" fillOpacity="0.8" shape-rendering="crispEdges"/>
</g>
<g filter="url(#filter1_d_2266_73515)">
<path d="M16.8332 8.35355C16.8336 8.27678 16.8189 8.20068 16.7899 8.12961C16.7609 8.05853 16.7181 7.99389 16.664 7.93939L14.1907 5.46605C14.1362 5.41199 14.0715 5.36921 14.0005 5.34018C13.9294 5.31116 13.8533 5.29644 13.7765 5.29688C13.6997 5.29644 13.6236 5.31116 13.5526 5.34018C13.4815 5.36921 13.4169 5.41199 13.3623 5.46605L11.7115 7.11688L5.33568 13.4927C5.28162 13.5472 5.23884 13.6119 5.20981 13.6829C5.18078 13.754 5.16607 13.8301 5.16651 13.9069V16.3802C5.16651 16.5349 5.22797 16.6833 5.33737 16.7927C5.44676 16.9021 5.59514 16.9636 5.74985 16.9636H8.22318C8.3048 16.968 8.38645 16.9552 8.46283 16.9261C8.5392 16.8969 8.6086 16.8521 8.66651 16.7944L15.0073 10.4186L16.664 8.79689C16.7173 8.74035 16.7606 8.67528 16.7923 8.60439C16.798 8.55789 16.798 8.51088 16.7923 8.46439C16.7951 8.43723 16.7951 8.40987 16.7923 8.38272L16.8332 8.35355ZM7.98401 15.7969H6.33318V14.1461L12.1257 8.35355L13.7765 10.0044L7.98401 15.7969ZM14.599 9.18189L12.9482 7.53105L13.7765 6.70855L15.4215 8.35355L14.599 9.18189Z" fill="white"/>
</g>
<defs>
<filter id="filter0_bdd_2266_73515" x="-1.1998" y="-0.9" width="24.8" height="24.8" filterUnits="userSpaceOnUse" color-interpolation-filters="sRGB">
<feFlood flood-opacity="0" result="BackgroundImageFix"/>
<feGaussianBlur in="BackgroundImage" stdDeviation="1.2"/>
<feComposite in2="SourceAlpha" operator="in" result="effect1_backgroundBlur_2266_73515"/>
<feColorMatrix in="SourceAlpha" type="matrix" values="0 0 0 0 0 0 0 0 0 0 0 0 0 0 0 0 0 0 127 0" result="hardAlpha"/>
<feOffset dx="-0.6" dy="-0.6"/>
<feComposite in2="hardAlpha" operator="out"/>
<feColorMatrix type="matrix" values="0 0 0 0 0.929412 0 0 0 0 0.0980392 0 0 0 0 0.254902 0 0 0 1 0"/>
<feBlend mode="normal" in2="effect1_backgroundBlur_2266_73515" result="effect2_dropShadow_2266_73515"/>
<feColorMatrix in="SourceAlpha" type="matrix" values="0 0 0 0 0 0 0 0 0 0 0 0 0 0 0 0 0 0 127 0" result="hardAlpha"/>
<feOffset dx="0.6" dy="0.6"/>
<feComposite in2="hardAlpha" operator="out"/>
<feColorMatrix type="matrix" values="0 0 0 0 0.00416666 0 0 0 0 0.347558 0 0 0 0 1 0 0 0 1 0"/>
<feBlend mode="normal" in2="effect2_dropShadow_2266_73515" result="effect3_dropShadow_2266_73515"/>
<feBlend mode="normal" in="SourceGraphic" in2="effect3_dropShadow_2266_73515" result="shape"/>
</filter>
<filter id="filter1_d_2266_73515" x="2.4" y="2.65" width="17.2" height="17.2" filterUnits="userSpaceOnUse" color-interpolation-filters="sRGB">
<feFlood flood-opacity="0" result="BackgroundImageFix"/>
<feColorMatrix in="SourceAlpha" type="matrix" values="0 0 0 0 0 0 0 0 0 0 0 0 0 0 0 0 0 0 127 0" result="hardAlpha"/>
<feOffset/>
<feGaussianBlur stdDeviation="0.8"/>
<feComposite in2="hardAlpha" operator="out"/>
<feColorMatrix type="matrix" values="0 0 0 0 0.166667 0 0 0 0 0.6 0 0 0 0 1 0 0 0 0.9 0"/>
<feBlend mode="normal" in2="BackgroundImageFix" result="effect1_dropShadow_2266_73515"/>
<feBlend mode="normal" in="SourceGraphic" in2="effect1_dropShadow_2266_73515" result="shape"/>
</filter>
<linearGradient id="paint0_linear_2266_73515" x1="3.8002" y1="3.3" x2="19.4002" y2="20.3" gradientUnits="userSpaceOnUse">
<stop stop-color="#600012"/>
<stop offset="1" stop-color="#001E56"/>
</linearGradient>
</defs>
</svg>
