<svg width="12" height="9" viewBox="0 0 12 9" fill="none" xmlns="http://www.w3.org/2000/svg">
<path d="M11.202 4.36303C10.11 1.90637 8.0557 0.38208 5.83924 0.38208C3.62278 0.38208 1.5685 1.90637 0.476483 4.36303C0.446715 4.42912 0.431351 4.50045 0.431351 4.57256C0.431351 4.64466 0.446715 4.71599 0.476483 4.78208C1.5685 7.23875 3.62278 8.76303 5.83924 8.76303C8.0557 8.76303 10.11 7.23875 11.202 4.78208C11.2318 4.71599 11.2471 4.64466 11.2471 4.57256C11.2471 4.50045 11.2318 4.42912 11.202 4.36303ZM5.83924 7.71541C4.12554 7.71541 2.50373 6.51589 1.5685 4.57256C2.50373 2.62922 4.12554 1.4297 5.83924 1.4297C7.55294 1.4297 9.17474 2.62922 10.11 4.57256C9.17474 6.51589 7.55294 7.71541 5.83924 7.71541ZM5.83924 2.47732C5.41156 2.47732 4.99348 2.6002 4.63787 2.83043C4.28227 3.06066 4.00511 3.38789 3.84144 3.77074C3.67777 4.1536 3.63495 4.57488 3.71839 4.98132C3.80182 5.38775 4.00777 5.76109 4.31019 6.05411C4.61261 6.34714 4.99791 6.54669 5.41737 6.62754C5.83684 6.70838 6.27163 6.66689 6.66675 6.5083C7.06188 6.34972 7.3996 6.08117 7.63721 5.73661C7.87482 5.39205 8.00164 4.98696 8.00164 4.57256C8.00164 4.01686 7.77382 3.48393 7.36829 3.091C6.96276 2.69807 6.41274 2.47732 5.83924 2.47732ZM5.83924 5.62018C5.6254 5.62018 5.41636 5.55873 5.23856 5.44362C5.06075 5.32851 4.92217 5.16489 4.84034 4.97346C4.75851 4.78204 4.73709 4.57139 4.77881 4.36818C4.82053 4.16496 4.92351 3.97829 5.07471 3.83178C5.22592 3.68527 5.41857 3.58549 5.62831 3.54507C5.83804 3.50464 6.05543 3.52539 6.253 3.60468C6.45056 3.68397 6.61942 3.81825 6.73822 3.99053C6.85703 4.16281 6.92044 4.36536 6.92044 4.57256C6.92044 4.8504 6.80653 5.11687 6.60376 5.31333C6.401 5.5098 6.12599 5.62018 5.83924 5.62018Z" fill="#FCFCFD"/>
</svg>
