<svg width="13" height="14" viewBox="0 0 13 14" fill="none" xmlns="http://www.w3.org/2000/svg">
<path d="M11.9307 0.074375C11.9904 0.114308 12.0394 0.168323 12.0733 0.231653C12.1071 0.294982 12.1249 0.365679 12.125 0.4375V7C12.125 7.08737 12.0988 7.17274 12.0498 7.2451C12.0009 7.31746 11.9314 7.3735 11.8502 7.406L11.6875 7L11.8502 7.406L11.8476 7.40688L11.8424 7.4095L11.8223 7.41738C11.7072 7.4631 11.5914 7.50685 11.4749 7.54862C11.2439 7.63175 10.9228 7.74375 10.5588 7.85488C9.84475 8.07538 8.91462 8.3125 8.1875 8.3125C7.44637 8.3125 6.833 8.0675 6.29925 7.85313L6.27475 7.84438C5.72 7.62125 5.2475 7.4375 4.6875 7.4375C4.075 7.4375 3.25425 7.63875 2.55513 7.85488C2.2421 7.95243 1.93193 8.05893 1.625 8.17425V13.5625C1.625 13.6785 1.57891 13.7898 1.49686 13.8719C1.41481 13.9539 1.30353 14 1.1875 14C1.07147 14 0.960188 13.9539 0.878141 13.8719C0.796094 13.7898 0.75 13.6785 0.75 13.5625V0.4375C0.75 0.321468 0.796094 0.210188 0.878141 0.128141C0.960188 0.0460936 1.07147 0 1.1875 0C1.30353 0 1.41481 0.0460936 1.49686 0.128141C1.57891 0.210188 1.625 0.321468 1.625 0.4375V0.68425C1.82275 0.615125 2.059 0.5355 2.31625 0.45675C3.03025 0.238 3.96125 0 4.6875 0C5.4225 0 6.021 0.242375 6.54338 0.454125L6.581 0.469875C7.12525 0.6895 7.5995 0.875 8.1875 0.875C8.8 0.875 9.62075 0.67375 10.3199 0.457625C10.7183 0.333211 11.112 0.194285 11.5003 0.041125L11.5169 0.035L11.5204 0.03325H11.5213" fill="#C2C9D1"/>
<path d="M11.9307 0.074375C11.9904 0.114308 12.0394 0.168323 12.0733 0.231653C12.1071 0.294982 12.1249 0.365679 12.125 0.4375V7C12.125 7.08737 12.0988 7.17274 12.0498 7.2451C12.0009 7.31746 11.9314 7.3735 11.8502 7.406L11.6875 7L11.8502 7.406L11.8476 7.40688L11.8424 7.4095L11.8223 7.41738C11.7072 7.4631 11.5914 7.50685 11.4749 7.54862C11.2439 7.63175 10.9228 7.74375 10.5588 7.85488C9.84475 8.07538 8.91462 8.3125 8.1875 8.3125C7.44637 8.3125 6.833 8.0675 6.29925 7.85313L6.27475 7.84438C5.72 7.62125 5.2475 7.4375 4.6875 7.4375C4.075 7.4375 3.25425 7.63875 2.55513 7.85488C2.2421 7.95243 1.93193 8.05893 1.625 8.17425V13.5625C1.625 13.6785 1.57891 13.7898 1.49686 13.8719C1.41481 13.9539 1.30353 14 1.1875 14C1.07147 14 0.960188 13.9539 0.878141 13.8719C0.796094 13.7898 0.75 13.6785 0.75 13.5625V0.4375C0.75 0.321468 0.796094 0.210188 0.878141 0.128141C0.960188 0.0460936 1.07147 0 1.1875 0C1.30353 0 1.41481 0.0460936 1.49686 0.128141C1.57891 0.210188 1.625 0.321468 1.625 0.4375V0.68425C1.82275 0.615125 2.059 0.5355 2.31625 0.45675C3.03025 0.238 3.96125 0 4.6875 0C5.4225 0 6.021 0.242375 6.54338 0.454125L6.581 0.469875C7.12525 0.6895 7.5995 0.875 8.1875 0.875C8.8 0.875 9.62075 0.67375 10.3199 0.457625C10.7183 0.333211 11.112 0.194285 11.5003 0.041125L11.5169 0.035L11.5204 0.03325H11.5213" fill="white" fillOpacity="0.9"/>
</svg>
