<svg width="11" height="10" viewBox="0 0 11 10" fill="none" xmlns="http://www.w3.org/2000/svg">
<path d="M10.041 2.70165C9.89722 2.3688 9.68994 2.06718 9.43075 1.81366C9.17135 1.55939 8.86552 1.35732 8.52988 1.21845C8.18185 1.07387 7.80856 0.999873 7.43169 1.00074C6.90297 1.00074 6.38712 1.14552 5.93883 1.419C5.83159 1.48442 5.72971 1.55627 5.63318 1.63456C5.53666 1.55627 5.43478 1.48442 5.32754 1.419C4.87925 1.14552 4.3634 1.00074 3.83468 1.00074C3.45396 1.00074 3.08503 1.07367 2.73649 1.21845C2.39974 1.35787 2.09623 1.55842 1.83562 1.81366C1.57609 2.06689 1.36876 2.36859 1.2254 2.70165C1.07633 3.04806 1.00018 3.41591 1.00018 3.79448C1.00018 4.15161 1.07311 4.52375 1.21789 4.90233C1.33908 5.2187 1.51282 5.54687 1.73481 5.87826C2.08658 6.40269 2.57026 6.94965 3.17083 7.5041C4.16607 8.4232 5.15165 9.05809 5.19348 9.08383L5.44765 9.24684C5.56026 9.3187 5.70504 9.3187 5.81765 9.24684L6.07182 9.08383C6.11365 9.05702 7.09816 8.4232 8.09447 7.5041C8.69504 6.94965 9.17872 6.40269 9.53048 5.87826C9.75248 5.54687 9.92729 5.2187 10.0474 4.90233C10.1922 4.52375 10.2651 4.15161 10.2651 3.79448C10.2662 3.41591 10.19 3.04806 10.041 2.70165ZM5.63318 8.39853C5.63318 8.39853 1.81525 5.95226 1.81525 3.79448C1.81525 2.70165 2.71933 1.81581 3.83468 1.81581C4.61864 1.81581 5.29858 2.25337 5.63318 2.89255C5.96779 2.25337 6.64773 1.81581 7.43169 1.81581C8.54704 1.81581 9.45112 2.70165 9.45112 3.79448C9.45112 5.95226 5.63318 8.39853 5.63318 8.39853Z" fill="white"/>
</svg>
