<svg width="10" height="10" viewBox="0 0 10 10" fill="none" xmlns="http://www.w3.org/2000/svg">
<g clipPath="url(#clip0_2671_41158)">
<path d="M5.06197 7.66696C5.13959 7.66696 5.21547 7.64462 5.28002 7.60276C5.34456 7.5609 5.39486 7.5014 5.42457 7.43179C5.45427 7.36218 5.46204 7.28558 5.4469 7.21168C5.43176 7.13779 5.39438 7.06991 5.33949 7.01663C5.2846 6.96335 5.21467 6.92707 5.13854 6.91237C5.0624 6.89767 4.98349 6.90522 4.91178 6.93405C4.84006 6.96288 4.77877 7.01171 4.73564 7.07436C4.69251 7.13701 4.6695 7.21066 4.6695 7.28601C4.6695 7.38704 4.71085 7.48394 4.78445 7.55538C4.85805 7.62682 4.95788 7.66696 5.06197 7.66696ZM7.02433 7.66696C7.10196 7.66696 7.17784 7.64462 7.24238 7.60276C7.30692 7.5609 7.35723 7.5014 7.38693 7.43179C7.41664 7.36218 7.42441 7.28558 7.40927 7.21168C7.39412 7.13779 7.35674 7.06991 7.30186 7.01663C7.24697 6.96335 7.17704 6.92707 7.1009 6.91237C7.02477 6.89767 6.94586 6.90522 6.87414 6.93405C6.80243 6.96288 6.74113 7.01171 6.69801 7.07436C6.65488 7.13701 6.63186 7.21066 6.63186 7.28601C6.63186 7.38704 6.67321 7.48394 6.74681 7.55538C6.82042 7.62682 6.92024 7.66696 7.02433 7.66696ZM7.02433 6.14315C7.10196 6.14315 7.17784 6.12081 7.24238 6.07895C7.30692 6.03709 7.35723 5.97759 7.38693 5.90798C7.41664 5.83837 7.42441 5.76177 7.40927 5.68788C7.39412 5.61398 7.35674 5.5461 7.30186 5.49282C7.24697 5.43954 7.17704 5.40326 7.1009 5.38856C7.02477 5.37386 6.94586 5.38141 6.87414 5.41024C6.80243 5.43907 6.74113 5.4879 6.69801 5.55055C6.65488 5.6132 6.63186 5.68685 6.63186 5.7622C6.63186 5.86323 6.67321 5.96013 6.74681 6.03157C6.82042 6.10301 6.92024 6.14315 7.02433 6.14315ZM5.06197 6.14315C5.13959 6.14315 5.21547 6.12081 5.28002 6.07895C5.34456 6.03709 5.39486 5.97759 5.42457 5.90798C5.45427 5.83837 5.46204 5.76177 5.4469 5.68788C5.43176 5.61398 5.39438 5.5461 5.33949 5.49282C5.2846 5.43954 5.21467 5.40326 5.13854 5.38856C5.0624 5.37386 4.98349 5.38141 4.91178 5.41024C4.84006 5.43907 4.77877 5.4879 4.73564 5.55055C4.69251 5.6132 4.6695 5.68685 4.6695 5.7622C4.6695 5.86323 4.71085 5.96013 4.78445 6.03157C4.85805 6.10301 4.95788 6.14315 5.06197 6.14315ZM7.80928 1.57172H7.41681V1.19077C7.41681 1.08973 7.37546 0.992835 7.30186 0.921393C7.22825 0.84995 7.12843 0.809814 7.02433 0.809814C6.92024 0.809814 6.82042 0.84995 6.74681 0.921393C6.67321 0.992835 6.63186 1.08973 6.63186 1.19077V1.57172H3.49208V1.19077C3.49208 1.08973 3.45073 0.992835 3.37712 0.921393C3.30352 0.84995 3.20369 0.809814 3.0996 0.809814C2.99551 0.809814 2.89569 0.84995 2.82208 0.921393C2.74848 0.992835 2.70713 1.08973 2.70713 1.19077V1.57172H2.31466C2.00239 1.57172 1.7029 1.69213 1.4821 1.90645C1.26129 2.12078 1.13724 2.41147 1.13724 2.71458V8.04791C1.13724 8.35101 1.26129 8.6417 1.4821 8.85603C1.7029 9.07036 2.00239 9.19077 2.31466 9.19077H7.80928C8.12155 9.19077 8.42103 9.07036 8.64184 8.85603C8.86265 8.6417 8.9867 8.35101 8.9867 8.04791V2.71458C8.9867 2.41147 8.86265 2.12078 8.64184 1.90645C8.42103 1.69213 8.12155 1.57172 7.80928 1.57172ZM8.20175 8.04791C8.20175 8.14894 8.16041 8.24584 8.0868 8.31728C8.0132 8.38873 7.91337 8.42886 7.80928 8.42886H2.31466C2.21057 8.42886 2.11074 8.38873 2.03714 8.31728C1.96353 8.24584 1.92218 8.14894 1.92218 8.04791V4.61934H8.20175V8.04791ZM8.20175 3.85743H1.92218V2.71458C1.92218 2.61354 1.96353 2.51664 2.03714 2.4452C2.11074 2.37376 2.21057 2.33362 2.31466 2.33362H2.70713V2.71458C2.70713 2.81561 2.74848 2.91251 2.82208 2.98395C2.89569 3.05539 2.99551 3.09553 3.0996 3.09553C3.20369 3.09553 3.30352 3.05539 3.37712 2.98395C3.45073 2.91251 3.49208 2.81561 3.49208 2.71458V2.33362H6.63186V2.71458C6.63186 2.81561 6.67321 2.91251 6.74681 2.98395C6.82042 3.05539 6.92024 3.09553 7.02433 3.09553C7.12843 3.09553 7.22825 3.05539 7.30186 2.98395C7.37546 2.91251 7.41681 2.81561 7.41681 2.71458V2.33362H7.80928C7.91337 2.33362 8.0132 2.37376 8.0868 2.4452C8.16041 2.51664 8.20175 2.61354 8.20175 2.71458V3.85743ZM3.0996 6.14315C3.17723 6.14315 3.25311 6.12081 3.31765 6.07895C3.38219 6.03709 3.4325 5.97759 3.4622 5.90798C3.49191 5.83837 3.49968 5.76177 3.48454 5.68788C3.46939 5.61398 3.43201 5.5461 3.37712 5.49282C3.32224 5.43954 3.2523 5.40326 3.17617 5.38856C3.10004 5.37386 3.02113 5.38141 2.94941 5.41024C2.8777 5.43907 2.8164 5.4879 2.77327 5.55055C2.73015 5.6132 2.70713 5.68685 2.70713 5.7622C2.70713 5.86323 2.74848 5.96013 2.82208 6.03157C2.89569 6.10301 2.99551 6.14315 3.0996 6.14315ZM3.0996 7.66696C3.17723 7.66696 3.25311 7.64462 3.31765 7.60276C3.38219 7.5609 3.4325 7.5014 3.4622 7.43179C3.49191 7.36218 3.49968 7.28558 3.48454 7.21168C3.46939 7.13779 3.43201 7.06991 3.37712 7.01663C3.32224 6.96335 3.2523 6.92707 3.17617 6.91237C3.10004 6.89767 3.02113 6.90522 2.94941 6.93405C2.8777 6.96288 2.8164 7.01171 2.77327 7.07436C2.73015 7.13701 2.70713 7.21066 2.70713 7.28601C2.70713 7.38704 2.74848 7.48394 2.82208 7.55538C2.89569 7.62682 2.99551 7.66696 3.0996 7.66696Z" fill="white" stroke="white" strokeWidth="0.235294"/>
</g>
<defs>
<clipPath id="clip0_2671_41158">
<rect width="9.41936" height="9.14286" fill="white" transform="translate(0.352539 0.428467)"/>
</clipPath>
</defs>
</svg>
